<?xml version="1.0" encoding="UTF-8"?>
<!DOCTYPE svg PUBLIC "-//W3C//DTD SVG 1.1//EN" "http://www.w3.org/Graphics/SVG/1.1/DTD/svg11.dtd">
<!-- Creator: CorelDRAW 2019 (64-Bit) -->
<svg xmlns="http://www.w3.org/2000/svg" xml:space="preserve" width="146.976mm" height="170.801mm" version="1.1" style="shape-rendering:geometricPrecision; text-rendering:geometricPrecision; image-rendering:optimizeQuality; fill-rule:evenodd; clip-rule:evenodd"
viewBox="0 0 14683.35 17063.5"
 xmlns:xlink="http://www.w3.org/1999/xlink">
 <defs>
  <style type="text/css">
   <![CDATA[
    .fil2 {fill:#2F2E41}
    .fil0 {fill:#3F3D56}
    .fil1 {fill:#A0616A}
    .fil6 {fill:#CCCCCC}
    .fil5 {fill:#F2F2F2}
    .fil7 {fill:#F54C5F}
    .fil4 {fill:#F54C5F}
    .fil3 {fill:#F54C5F;fill-opacity:0.501961}
   ]]>
  </style>
 </defs>
 <g id="Layer_x0020_1">
  <metadata id="CorelCorpID_0Corel-Layer"/>
  <path class="fil0" d="M1017.65 10752.1l-978 0 0 -978.01c0,-174.46 142.74,-317.19 317.19,-317.19l951.58 0 0 1004.45c0,160.32 -130.43,290.76 -290.76,290.76l-0.01 0z"/>
  <path class="fil0" d="M14392.6 1315.62l-978.01 0 0 -978c0,-174.46 142.74,-317.19 317.19,-317.19l951.58 0 0 1004.44c0,160.32 -130.43,290.76 -290.76,290.76z"/>
  <g id="_2260927250576">
   <polygon class="fil1" points="7539.69,16646.47 7187.43,16646.44 7019.85,15287.67 7539.76,15287.71 "/>
   <path class="fil2" d="M7552.09 17013.95l-1083.28 -0.04 0 -13.7c0.02,-232.85 188.79,-421.62 421.64,-421.63l0.03 0 197.88 -150.11 369.19 150.14 94.57 0 -0.02 435.35 -0.01 -0.01z"/>
  </g>
  <path class="fil2" d="M7316.44 9633.75l-232.48 807.17c0,0 -502.22,2641.55 -370.06,3011.6 132.16,370.05 229.57,2697.86 229.57,2697.86l687.67 -0.01c0,0 92.62,-590.53 89.91,-679.4 -2.71,-88.87 155.89,-1516.24 -55.57,-1727.7l925.14 -2326.07 1453.8 -1215.9 -570.08 -707.61 -2157.91 140.06 0 0.01z"/>
  <path class="fil3" d="M10678.8 10943.13l0 -422.92 -422.92 -581.52c-174.45,0 -317.19,142.73 -317.19,317.19l0 1427.37c0,174.45 142.74,317.19 317.19,317.19l1427.37 0c174.45,0 317.19,-142.74 317.19,-317.19l-581.52 -396.5 -396.5 0c-189.49,0 -343.63,-154.16 -343.63,-343.63z"/>
  <path class="fil3" d="M12719.94 7440.8l-8628.7 0c-281,0 -509.61,-228.62 -509.61,-509.63l0 -2998.52c0,-281.01 228.6,-509.63 509.61,-509.63l8628.7 0.01c281,0 509.63,228.62 509.63,509.63l0 2998.52c0,281.01 -228.63,509.63 -509.63,509.63l0 -0.01z"/>
  <path class="fil4" d="M9007.74 6872.5l-5630.17 0c-288.29,0 -522.84,-234.55 -522.84,-522.84l0 -2998.53c0,-288.29 234.54,-522.83 522.83,-522.83l8628.68 0c288.29,0 522.84,234.55 522.84,522.84 0,1941.68 -1579.68,3521.35 -3521.35,3521.35l0.01 0.01zm-5630.18 -3991.34c-259.14,0 -469.96,210.83 -469.96,469.96l0 2998.52c0,259.15 210.83,469.98 469.98,469.98l5630.16 0c1912.53,0 3468.49,-1555.95 3468.49,-3468.49 0,-259.15 -210.83,-469.98 -469.98,-469.98l-8628.69 0.01z"/>
  <g id="_2260927253968">
   <path class="fil1" d="M9721.94 9966.28l-55.96 -792 447.98 -95.09 29.36 839.46c17.65,18.62 32.93,40.07 44.98,64.22 65.54,131.33 12.2,290.92 -119.12,356.45 -131.33,65.54 -290.92,12.2 -356.45,-119.12 -41.8,-83.76 -35.07,-178.91 9.22,-253.92l0 0.01z"/>
   <path class="fil0" d="M9010.77 4888.01l-172.35 128.45 423.58 2415.39 -61.92 147.88 82.61 77.67 25.32 185.76 333.54 1725.49 508.62 0c-7.46,-59.94 139.58,-121.38 132.16,-185.03 -8.48,-72.78 -68.05,-182.86 -76.53,-259.75 -2.63,-23.81 -5.24,-47.79 -7.87,-71.94 -3.86,-35.45 -7.71,-71.26 -11.58,-107.39 -3,-27.97 -5.99,-56.15 -8.99,-84.49 -65.03,-613.67 -91.76,-1304.23 -129.32,-1900.53 -47.88,-760.19 -113.37,-1367.19 -298.22,-1466.37l-739.02 -605.13 -0.01 -0.01z"/>
  </g>
  <path class="fil5" d="M10296.44 16605.35c54.61,3.42 84.79,-64.43 43.48,-103.97l-4.11 -16.34c0.54,-1.31 1.09,-2.62 1.63,-3.93 55.23,-131.68 242.38,-130.77 297.14,1.11 48.6,117.05 110.47,234.29 125.71,358.05 6.83,54.63 3.76,110.28 -8.36,163.89 113.87,-248.75 173.8,-520.37 173.8,-793.53 0,-68.63 -3.76,-137.27 -11.44,-205.72 -6.31,-56 -15.03,-111.65 -26.29,-166.8 -60.95,-298.09 -192.92,-582.01 -383.28,-819.14 -91.51,-50.02 -167.83,-128.22 -213.92,-221.94 -16.56,-33.81 -29.53,-70.17 -35.69,-107.22 10.41,1.37 39.27,-157.24 31.41,-166.97 14.52,-22.02 40.49,-32.97 56.34,-54.46 78.83,-106.88 187.44,-88.21 244.13,57.02 121.12,61.13 122.29,162.51 47.97,260.02 -47.28,62.03 -53.78,145.97 -95.27,212.38 4.27,5.46 8.71,10.76 12.98,16.22 78.26,100.39 145.97,208.29 203.03,321.65 -16.12,-125.99 7.68,-277.76 48.27,-375.6 46.21,-111.47 132.82,-205.36 209.1,-301.73 91.61,-115.76 279.48,-65.24 295.62,81.5 0.16,1.42 0.31,2.84 0.46,4.27 -11.33,6.39 -22.43,13.18 -33.27,20.35 -61.84,40.9 -40.47,136.76 32.81,148.07l1.66 0.26c-4.1,40.8 -11.1,81.26 -21.34,121.04 97.85,378.4 -113.4,516.23 -415.03,522.42 -6.66,3.42 -13.15,6.82 -19.8,10.07 30.56,86.05 54.98,174.31 73.07,263.77 16.21,79.04 27.48,158.95 33.81,239.19 7.85,101.24 7.17,202.99 -1.37,304.06l0.51 -3.59c21.68,-111.31 82.12,-215.28 169.88,-287.33 130.72,-107.39 315.41,-146.93 456.45,-233.24 67.88,-41.55 154.88,12.15 143.03,90.85l-0.58 3.77c-21,8.53 -41.49,18.44 -61.29,29.53 -11.33,6.39 -22.43,13.18 -33.27,20.35 -61.84,40.9 -40.47,136.76 32.81,148.07l1.66 0.26c1.2,0.17 2.22,0.34 3.42,0.51 -36.03,85.53 -86.22,164.92 -149.05,233.38 -61.18,330.33 -323.96,361.67 -605.05,265.48l-0.17 -0.04c-30.73,133.85 -75.63,264.62 -133.34,389.25l-476.32 0c-1.71,-5.29 -3.25,-10.76 -4.79,-16.04 44.05,2.74 88.43,0.17 131.8,-7.85 -35.35,-43.37 -70.68,-87.08 -106.02,-130.43 -0.85,-0.85 -1.54,-1.71 -2.22,-2.56 -17.92,-22.19 -36.03,-44.22 -53.95,-66.42l-0.01 -0.03c-1.12,-68.13 7.04,-136.04 23.23,-201.94l0.02 -0.01 -0.01 0.01z"/>
  <path class="fil6" d="M4968.9 17032.05c0,17.44 14.01,31.46 31.46,31.46l6695.13 0c17.44,0 31.46,-14.01 31.46,-31.46 0,-17.44 -14.01,-31.46 -31.46,-31.46l-6695.13 0.01c-17.44,0 -31.46,14.01 -31.46,31.46l0 -0.01z"/>
  <path class="fil0" d="M599.76 0c-331.24,0 -599.76,268.52 -599.76,599.76l0 10158.34 52.86 0 0 -6590.2c0,-2272.67 1842.36,-4115.04 4115.05,-4115.04l10511.85 -9.61 -9.61 -43.25 -14070.39 -0.01z"/>
  <path class="fil7" d="M4995.77 6766.77c0,35.42 -1.06,70.84 -2.91,105.73l-1615.3 0c-274.1,0 -496.41,-222.3 -496.41,-496.41l0 -1500.84c69.52,-7.66 140.09,-11.63 211.46,-11.63 1050.96,0 1903.15,852.19 1903.15,1903.15z"/>
  <path class="fil7" d="M10984.11 4837.09l-5164.12 0c-88,0 -159.55,71.54 -159.55,159.55 0,88 71.54,159.55 159.55,159.55l5164.12 0.01c88,0 159.55,-71.54 159.55,-159.55 0,-88 -71.54,-159.55 -159.55,-159.55l0 -0.01z"/>
  <path class="fil7" d="M7421.14 3942.49l-1601.15 0c-88,0 -159.55,71.54 -159.55,159.55 0,88 71.54,159.55 159.55,159.55l1601.15 0c88,0 159.55,-71.54 159.55,-159.55 0,-88 -71.54,-159.55 -159.55,-159.55z"/>
  <g id="_2260927258736">
   <polygon class="fil1" points="8993.48,16646.47 8641.22,16646.44 8473.64,15287.67 8993.56,15287.71 "/>
   <path class="fil2" d="M9005.89 17013.95l-1083.28 -0.04 0 -13.7c0.02,-232.85 188.79,-421.62 421.64,-421.63l0.02 0 197.88 -150.11 369.19 150.14 94.57 0 -0.02 435.35 0 -0.01z"/>
  </g>
  <path class="fil2" d="M8260.22 9951.91l185.03 1612.4 -409.7 1678.47 356.84 2920.82 660.82 52.87c0,0 317.19,-2141.05 26.43,-2881.16l740.11 -2907.6 -555.09 -317.19 -1004.45 -158.6z"/>
  <g>
   <path class="fil0" d="M8949.65 4503.76c-116.62,-124.49 -76.68,-237.91 -256.96,-269.69 -122.22,-21.55 -269.33,0.06 -394.49,-0.05 -314.54,-0.29 -361.84,173.64 -542.92,404.72 -466.45,595.18 -32.49,1072.81 -142.65,1784.41 -102.36,661.19 171.98,1021.26 50.47,1684.23 -57.83,315.58 -169.96,759.95 -366.13,1122.88 -108.32,200.4 -160.27,433.53 -133.7,655.57 23.52,196.52 2561.51,219.43 2631.74,171.07 82.7,-56.93 54.74,-179.01 62.81,-264.04 21.88,-230.4 44.14,-391.79 -11.19,-627.11 -51.99,-221.13 -51.02,-478.06 -51.74,-706.59 -0.7,-220.34 -311.05,143.41 -293.02,-76.57 23,-280.56 68.58,-555.04 118.8,-833.05 38.87,-215.18 54.11,-436.3 111.22,-646.98 65.79,-242.69 144.23,-456.19 146.87,-710.73 2.06,-198.13 49.87,-475.1 -28.9,-656.62 -116.05,-267.41 -350.06,-508.21 -547.48,-722.4 -98.16,-106.5 -195.62,-175.82 -307.76,-264.08l-44.97 -44.96zm0 0l0 0 0 0z"/>
  </g>
  <g>
   <path class="fil1" d="M4965.35 5722.41l714.61 346.03 -140.71 435.8 -742.51 -392.73c-24.94,6.02 -51.15,8.58 -78.09,7 -146.52,-8.6 -258.33,-134.35 -249.74,-280.87 8.6,-146.52 134.35,-258.33 280.87,-249.74 93.44,5.48 172.59,58.71 215.57,134.49l0.01 0.01z"/>
   <path class="fil0" d="M7157.32 7697.53c-68.44,-36.25 -1111.1,-701.19 -1659.32,-1010.05 -10.27,-5.78 -81.04,32.13 -90.91,26.56 -15.07,-8.49 -0.74,-71.5 -14.82,-79.42 -30.52,-17.2 -87.55,21.75 -112.84,7.49 -91.6,-51.62 -72.19,-271.83 -72.19,-271.83l185.03 -449.35 302.5 -9.65 67.56 115.39 143.42 -17.28 94.48 123.01 1088.82 427.21c42.32,-567.72 269.35,-1036.07 515.28,-1494.25l99.41 18.78c250.7,47.36 417.91,285.96 376.88,537.77l-287.12 1762.44c-27.79,163.97 -143.82,296.2 -302.79,345.07 -114.88,35.33 -234.07,20.73 -333.4,-31.86l-0.01 -0.02z"/>
  </g>
  <circle class="fil1" cx="8238.29" cy="3258.01" r="808.97"/>
  <path class="fil2" d="M9136.18 3282.62c-28.28,-11.37 -56.57,-20.88 -81.14,-26.96 138.82,174.76 -95.53,328.13 -131.89,506.99 3.03,141.98 -74.61,206.4 -210.42,245.28l3.18 -11.1c-1104.64,282.96 60.61,-658.94 -803.04,-684.9 -131.63,7.69 44.16,-406.19 -91.18,-385.37 -343.63,52.87 -359.64,16.53 -396.48,264.35 -66.9,21.91 -158.62,-79.33 -147.77,-185.06 -24.49,-44.5 -88.45,-16.01 -114.19,-83.54 -27.22,-51.54 -79.03,-388.55 39.11,-231.02 7.81,-107.55 -22.61,-327.42 111.55,-139.56 -17.46,-85.46 56.72,-48.45 87.75,2.38 21.94,-49.96 43.89,-99.65 65.56,-149.6 -6.07,22.47 -2.12,47.05 8.99,69.25 62.35,-132.46 157.54,-144.46 306.08,-181.85 -1.73,40.58 -0.79,88.05 4.77,124.76 172.48,-285.77 590.2,-205.93 756.75,46.53 105.55,24.1 150.15,-12.44 255.89,14 284.09,71.02 413.97,509.09 336.48,805.4l-0.01 0.02z"/>
  <path class="fil7" d="M11286.76 10916.7l978 0 0 -978.01c0,-174.46 -142.74,-317.19 -317.19,-317.19l-951.58 0.01 0 1004.45c0,160.32 130.43,290.76 290.76,290.76l0.01 -0.01z"/>
  <ellipse class="fil0" cx="3375.61" cy="1459.35" rx="223.53" ry="228.51"/>
  <ellipse class="fil0" cx="4147.82" cy="1459.35" rx="223.53" ry="228.51"/>
  <ellipse class="fil0" cx="4920.01" cy="1459.35" rx="223.53" ry="228.51"/>
  <path class="fil4" d="M10401.26 2227.56c-21.87,0 -39.65,17.78 -39.65,39.65l0 264.32c0,21.87 17.78,39.65 39.65,39.65l264.33 0c21.87,0 39.65,-17.78 39.65,-39.65l0 -264.32c0,-21.87 -17.78,-39.65 -39.65,-39.65l-264.33 0z"/>
  <path class="fil7" d="M11009.21 2227.56c-21.87,0 -39.65,17.78 -39.65,39.65l0 264.32c0,21.87 17.78,39.65 39.65,39.65l264.33 0c21.87,0 39.65,-17.78 39.65,-39.65l0 -264.32c0,-21.87 -17.78,-39.65 -39.65,-39.65l-264.33 0z"/>
  <path class="fil4" d="M11617.17 2227.56c-21.87,0 -39.65,17.78 -39.65,39.65l0 264.32c0,21.87 17.78,39.65 39.65,39.65l264.32 0c21.87,0 39.65,-17.78 39.65,-39.65l0 -264.32c0,-21.87 -17.78,-39.65 -39.65,-39.65l-264.32 0z"/>
 </g>
</svg>
